<svg version="1" xmlns="http://www.w3.org/2000/svg" width="1066.667" height="1066.667" viewBox="0 0 800.000000 800.000000"><path d="M0 400v400h800V0H0v400zm204.8-154.3l-.3 40.8h-122l-.3-40.8L82 205h123l-.2 40.7zm306.6 54.1c.2.4 5.7 21.2 12 46.2 6.4 25 16.3 63.9 22.1 86.5 5.7 22.5 10.5 41.2 10.6 41.5 0 .3 2.9-10.5 6.4-24 8.9-34.9 31-120 35.5-136.5l3.7-14 57.6-.3c43-.2 57.7.1 57.7.9 0 1-57.9 161-95.4 263.9l-11.2 30.5H487.8l-33.3-93c-18.2-51.2-41.8-117.1-52.3-146.5-10.6-29.5-19.2-54.1-19.2-54.8 0-.9 14.6-1.2 63.9-1.2 35.2 0 64.2.4 64.5.8zM205 451v144H82V307h123v144zm148-78v47H245v-94h108v47zm0 174v47H245v-94h108v47z"/></svg>