<svg id="Layer_1" data-name="Layer 1" xmlns="http://www.w3.org/2000/svg" viewBox="0 0 454.39 56.31"><defs><style>.cls-1{fill:#fff;}</style></defs><title>insertv</title><path class="cls-1" d="M20.88,17.42H3.24V5.9H20.88Zm0,43.78H3.24V20.3H20.88Z" transform="translate(-3.24 -5.9)"/><path class="cls-1" d="M71.07,61.2H53.43V35.35c0-3.1-1.59-4.61-4-4.61-2.67,0-4.54,1.58-4.54,5V61.2H27.29V20.3h17.5v7.49c1.72-4.68,6.19-8.5,13.39-8.5C66.24,19.29,71.07,23,71.07,31Z" transform="translate(-3.24 -5.9)"/><path class="cls-1" d="M112.75,58.39c-3.16,2.45-8.49,3.67-16,3.67-12.75,0-20.24-3.89-20.52-10.87a10.87,10.87,0,0,1,.28-2.59l12.46-1.15v.79c0,3.38,2.66,5.25,7.27,5.25,3.82,0,5.12-1.22,5.12-2.88,0-2.37-2-3.52-6.63-4.75-1.15-.29-2.52-.65-4-.93-10.08-2-14.11-5.76-14-13.33.07-3.38,1.73-6.26,5-8.71S90,19.22,97.13,19.22c11.59,0,17.79,4.18,18.29,10.44a6.53,6.53,0,0,1-.07,1.8l-12.1,1.3a5.28,5.28,0,0,1-.14-.65c-.51-2.31-2.24-4.54-6.27-4.54-3.53,0-4.53,1.15-4.53,2.59s1.87,2.67,6.84,3.82c.93.22,2.44.58,4,.86,5.54,1.08,9.36,2.81,11.37,5.19a13.27,13.27,0,0,1,3,8.93A11.45,11.45,0,0,1,112.75,58.39Z" transform="translate(-3.24 -5.9)"/><path class="cls-1" d="M162.58,43.27H139c0,6.41,1,9.65,5.62,9.65,3.24,0,4.68-1.44,5-4.39V46.08l13.61.57a32.19,32.19,0,0,1,.36,3.6,10.76,10.76,0,0,1-4.25,8.36c-2.81,2.37-7.92,3.6-15.19,3.6-15.34,0-23.19-7.06-23.19-20,0-8.35,2.23-14.26,6.77-17.78a26.27,26.27,0,0,1,16.63-5.33c12.67,0,19.23,6.33,19.23,17A31,31,0,0,1,162.58,43.27ZM143.64,28.36c-3.1,0-4.46,2.38-4.75,8.5h8.28a12.74,12.74,0,0,0,.29-2.52C147.46,30.24,146.23,28.36,143.64,28.36Z" transform="translate(-3.24 -5.9)"/><path class="cls-1" d="M207.07,39.45l-14.4,1c0-.57.94-3.67.94-6.05S193.1,30,190.73,30c-3.82,0-4.54,3.74-4.54,9.29V61.2H168.55V20.3h17.57v7.34a11.48,11.48,0,0,1,11.31-8.35q6,0,8.42,3.46a14,14,0,0,1,2.45,8.57A26.4,26.4,0,0,1,207.07,39.45Z" transform="translate(-3.24 -5.9)"/><path class="cls-1" d="M246.38,57.67c-.21.22-1.51.94-3.88,2.31s-5.69,2-10,2c-8.93,0-14.19-3.31-14.19-12V29.16h-5.76V20.3h5.9v-12H236v12h9.14v8.86H236v19c0,3.45,1.15,5.11,4.24,5.11a12,12,0,0,0,4.32-1.15Z" transform="translate(-3.24 -5.9)"/><path class="cls-1" d="M267.41,37h-15.2V24h15.2Zm0,24.19h-15.2v-13h15.2Z" transform="translate(-3.24 -5.9)"/><path class="cls-1" d="M318.38,20.3l-15,40.9H286.2L271.44,20.3h18.07s.65,2.45,1.87,7.27l3.39,13.11c.36,1.44,1,4,1,4s.65-2.52,1-4c1.08-4,2.23-8.28,3.46-13.11s1.94-7.27,1.94-7.27Z" transform="translate(-3.24 -5.9)"/><path class="cls-1" d="M339.19,17.42H321.55V5.9h17.64Zm0,43.78H321.55V20.3h17.64Z" transform="translate(-3.24 -5.9)"/><path class="cls-1" d="M385.63,43.27H362.08c0,6.41,1,9.65,5.62,9.65,3.24,0,4.68-1.44,5-4.39V46.08l13.61.57a32.19,32.19,0,0,1,.36,3.6,10.76,10.76,0,0,1-4.25,8.36c-2.81,2.37-7.92,3.6-15.19,3.6-15.34,0-23.19-7.06-23.19-20,0-8.35,2.23-14.26,6.77-17.78a26.29,26.29,0,0,1,16.63-5.33c12.68,0,19.23,6.33,19.23,17A31,31,0,0,1,385.63,43.27ZM366.69,28.36c-3.09,0-4.46,2.38-4.75,8.5h8.28a12.74,12.74,0,0,0,.29-2.52C370.51,30.24,369.29,28.36,366.69,28.36Z" transform="translate(-3.24 -5.9)"/><path class="cls-1" d="M457.63,20.3l-14.4,40.9H427.75l-5.62-22.11L415.8,61.2H400.6L386.13,20.3h17.93l5.76,23.62,5.62-23.62h14L435,43.92l6-23.62Z" transform="translate(-3.24 -5.9)"/></svg>